:SAMPLES-PER-SECOND 30
:FULLY-SPECIFIED
:DEGREES
380
root  16.6947 39.0472 10.6162 -175.614 8.19197 179.836
RightUpLeg  -15.5402 -11.1015 -16.9259
RightLeg  15.9342 -14.7585 -4.90034
RightFoot  19.1252 -6.39921 23.7342
RightToes  -5.8209e-011 0 -3.6325e-017
Spine  22.2826 -2.09698 2.31238
Spine1  14.8851 -1.33885 -1.34466
HEad  -28.0929 14.2268 -10.5104
LeftShoulder1  0.950772 -0.706698 -15.7928
LeftArm  16.8609 17.0139 -55.4845
LeftForeArm  92.8498 -79.0103 -104.76
LeftHand  -1.58748 -2.15724 24.3503
RightShoulder  0.436291 -1.38641 13.8427
RightArm  -11.5967 -12.9628 57.7395
RightForeArm  68.2639 78.8794 91.3159
RightHand  -1.28162 3.38553 -17.0677
LeftUpLeg  -13.2418 16.8694 11.6239
LeftLeg  29.8465 3.48353 2.50071
LeftFoot  -1.12443 1.63019 -17.9785
LeftToes  -3.91115e-011 -2.2622e-010 9.51032e-012
381
root  15.8432 39.4892 10.4576 -175.901 9.8555 -179.898
RightUpLeg  -16.2259 -13.7853 -12.767
RightLeg  20.2876 -8.71015 -3.71209
RightFoot  13.8752 -6.02457 26.9818
RightToes  -5.8209e-011 0 -3.6325e-017
Spine  21.0429 -2.49817 2.63617
Spine1  15.4304 -1.56354 -1.87877
HEad  -27.0798 15.9218 -10.7447
LeftShoulder1  0.797336 -0.0617903 -15.5432
LeftArm  15.7495 19.0963 -54.7555
LeftForeArm  102.979 -78.2974 -115.022
LeftHand  -1.55699 -2.22055 23.6993
RightShoulder  0.395462 -1.52001 13.1121
RightArm  -8.39129 -13.4172 56.8333
RightForeArm  80.4638 78.6666 102.381
RightHand  -0.997591 2.70859 -14.4533
LeftUpLeg  -14.6935 16.5284 11.4884
LeftLeg  33.198 0.145254 0.445111
LeftFoot  4.93305 2.69073 -18.9724
LeftToes  -3.91115e-011 -2.2622e-010 9.51032e-012
382
root  14.9921 39.5821 10.3371 -176.249 11.208 -179.714
RightUpLeg  -16.4527 -18.2569 -9.1774
RightLeg  24.4184 -1.84506 -1.14985
RightFoot  8.48949 -5.23403 29.5756
RightToes  -5.8209e-011 0 -3.6325e-017
Spine  19.3362 -2.45065 2.91109
Spine1  16.593 -1.64451 -1.4066
HEad  -25.9541 16.911 -10.689
LeftShoulder1  0.705533 0.304832 -15.2111
LeftArm  15.2007 19.4181 -55.0902
LeftForeArm  107.882 -78.1262 -117.776
LeftHand  -1.49459 -2.39346 22.3024
RightShoulder  0.371623 -1.58337 12.4617
RightArm  -6.33425 -13.7036 55.5468
RightForeArm  90.7821 77.9914 112.953
RightHand  -0.751797 1.88665 -12.1553
LeftUpLeg  -16.4106 12.7095 11.8366
LeftLeg  36.6971 -1.60573 -0.867797
LeftFoot  7.61002 2.84167 -17.1748
LeftToes  -3.91115e-011 -2.2622e-010 9.51032e-012
383
root  14.2184 39.4389 10.2098 -176.933 12.895 -179.646
RightUpLeg  -15.6667 -19.3247 -6.97022
RightLeg  27.4178 0.611819 0.0950415
RightFoot  3.57872 -3.53014 26.5476
RightToes  -5.8209e-011 0 -3.6325e-017
Spine  18.0319 -1.88444 2.34338
Spine1  17.4428 -1.48696 -0.423504
HEad  -24.7658 18.0186 -10.2881
LeftShoulder1  0.703884 0.305244 -15.1534
LeftArm  15.1947 18.5732 -56.0085
LeftForeArm  105.331 -78.5795 -113.762
LeftHand  -1.53582 -2.55634 22.4374
RightShoulder  0.341834 -1.71475 12.205
RightArm  -5.24192 -13.679 54.2862
RightForeArm  95.3405 77.3391 118.812
RightHand  -0.564742 1.0588 -10.2805
LeftUpLeg  -16.4915 7.39404 13.0683
LeftLeg  37.5101 2.26885 2.19809
LeftFoot  5.6259 2.0687 -13.9864
LeftToes  -3.91115e-011 -2.2622e-010 9.51032e-012
384
root  13.4898 39.053 10.1242 -177.961 15.3328 -179.455
RightUpLeg  -15.0343 -15.0551 -6.26509
RightLeg  29.7761 -2.11373 -1.57262
RightFoot  -0.805279 -1.97059 21.1459
RightToes  -5.8209e-011 0 -3.6325e-017
Spine  18.7811 -1.32317 1.63958
Spine1  16.0888 -1.05332 -0.269238
HEad  -23.7893 19.4564 -9.88076
LeftShoulder1  0.71912 0.270142 -15.4098
LeftArm  15.6038 17.6046 -56.7886
LeftForeArm  94.7155 -79.1553 -104.189
LeftHand  -1.64518 -2.58155 23.9129
RightShoulder  0.300637 -1.93218 12.2633
RightArm  -5.27113 -13.7242 54.3717
RightForeArm  94.3864 77.0963 119.962
RightHand  -0.407211 0.177304 -8.55365
LeftUpLeg  -15.133 2.69311 15.2099
LeftLeg  36.208 10.0322 8.15505
LeftFoot  1.72096 1.13185 -9.90274
LeftToes  -3.91115e-011 -2.2622e-010 9.51032e-012
385
root  12.6941 38.2485 10.1592 -178.724 18.0717 -179.294
RightUpLeg  -16.9145 -8.55019 -6.91936
RightLeg  34.2152 -5.3286 -4.13428
RightFoot  -4.96223 -1.14117 19.9703
RightToes  -5.8209e-011 0 -3.6325e-017
Spine  21.1051 -1.00452 1.17475
Spine1  12.9456 -0.629698 -0.745196
HEad  -23.6715 20.6916 -10.0118
LeftShoulder1  0.732776 0.24282 -15.6677
LeftArm  15.8554 16.2859 -57.7807
LeftForeArm  74.6766 -79.3393 -86.2641
LeftHand  -1.76704 -2.66134 25.3771
RightShoulder  0.303431 -1.93047 12.4363
RightArm  -6.71352 -14.4251 56.2234
RightForeArm  93.6708 76.8 121.459
RightHand  -0.328761 -0.51842 -7.87646
LeftUpLeg  -14.809 -0.828264 17.7047
LeftLeg  36.0117 15.1895 11.9406
LeftFoot  -1.55921 0.499146 -5.7275
LeftToes  -3.91115e-011 -2.2622e-010 9.51032e-012
386
root  11.7873 37.0923 10.243 -178.951 20.2257 -179.113
RightUpLeg  -20.6419 -4.87099 -8.43021
RightLeg  40.2688 -4.8995 -4.66262
RightFoot  -9.32022 -0.468848 22.959
RightToes  -5.8209e-011 0 -3.6325e-017
Spine  22.1663 -0.890978 0.45933
Spine1  11.4942 -0.763242 -0.339642
HEad  -24.5283 21.8254 -10.779
LeftShoulder1  0.857661 -0.237265 -16.1492
LeftArm  15.1561 13.576 -59.7205
LeftForeArm  46.8479 -77.6505 -60.1346
LeftHand  -1.98978 -2.81838 27.8808
RightShoulder  0.378467 -1.58126 12.8287
RightArm  -8.82731 -14.6264 58.7025
RightForeArm  92.9187 76.8417 121.197
RightHand  -0.427714 -0.170247 -9.50389
LeftUpLeg  -16.3101 -4.06307 20.5451
LeftLeg  38.259 14.1647 12.0243
LeftFoot  -4.65521 0.399602 -6.56273
LeftToes  -3.91115e-011 -2.2622e-010 9.51032e-012
387
root  10.6561 35.8744 10.1424 -178.806 21.6983 -178.505
RightUpLeg  -23.844 -5.52886 -10.0311
RightLeg  45.3555 -2.03965 -2.51761
RightFoot  -13.9023 0.464613 25.0547
RightToes  -5.8209e-011 0 -3.6325e-017
Spine  19.9202 -1.47692 0.363272
Spine1  14.2492 -1.72128 0.749942
HEad  -25.3509 23.9253 -11.5784
LeftShoulder1  1.14392 -1.22746 -17.5026
LeftArm  13.4104 9.59391 -62.1455
LeftForeArm  24.4242 -73.3323 -39.6754
LeftHand  -2.37082 -2.77964 33.0643
RightShoulder  0.481907 -1.13789 13.5561
RightArm  -10.414 -12.4999 61.0523
RightForeArm  77.0961 78.3797 103.06
RightHand  -0.830676 1.68361 -13.6313
LeftUpLeg  -17.9856 -7.87029 23.3774
LeftLeg  42.106 10.3751 10.268
LeftFoot  -9.23189 0.297175 -15.1653
LeftToes  -3.91115e-011 -2.2622e-010 9.51032e-012
388
root  9.34048 34.8283 9.91772 -178.969 24.9373 -177.526
RightUpLeg  -26.1072 -6.01904 -11.4394
RightLeg  48.5755 0.493811 0.239769
RightFoot  -17.1968 1.18967 25.1727
RightToes  -5.8209e-011 0 -3.6325e-017
Spine  17.3435 -1.88736 0.361655
Spine1  17.7314 -2.24629 1.00835
HEad  -25.1078 27.3291 -11.8401
LeftShoulder1  1.47378 -2.14538 -19.6017
LeftArm  11.4754 5.75871 -63.8819
LeftForeArm  12.1315 -68.8693 -30.012
LeftHand  -2.73388 -2.55232 38.8393
RightShoulder  0.56954 -0.823095 14.5147
RightArm  -11.7089 -8.75763 63.6315
RightForeArm  34.8127 76.7774 58.1992
RightHand  -1.64156 4.24586 -19.7812
LeftUpLeg  -17.5378 -8.94595 25.1291
LeftLeg  46.2554 7.31131 8.53176
LeftFoot  -15.271 -0.848654 -26.7804
LeftToes  -3.91115e-011 -2.2622e-010 9.51032e-012
